HIERARCHY
ROOT Hips
{
	OFFSET 0.00000 0.00000 0.00000
	CHANNELS 6 Xposition Yposition Zposition Zrotation Yrotation Xrotation 
	JOINT LHipJoint
	{
		OFFSET 0 0 0
		CHANNELS 3 Zrotation Yrotation Xrotation
		JOINT LeftHip
		{
			OFFSET 1.51378 -1.89840 0.47569
			CHANNELS 3 Zrotation Yrotation Xrotation
			JOINT LeftKnee
			{
				OFFSET 2.53380 -6.96157 0.00000
				CHANNELS 3 Zrotation Yrotation Xrotation
				JOINT LeftAnkle
				{
					OFFSET 2.74874 -7.55212 0.00000
					CHANNELS 3 Zrotation Yrotation Xrotation
					JOINT LeftToe
					{
						OFFSET 0.18263 -0.50178 1.99677
						CHANNELS 3 Zrotation Yrotation Xrotation
						End Site
						{
							OFFSET 0.00000 -0.00000 1.03711
						}
					}
				}
			}
		}
	}
	JOINT RHipJoint
	{
		OFFSET 0 0 0
		CHANNELS 3 Zrotation Yrotation Xrotation
		JOINT RightHip
		{
			OFFSET -1.43037 -1.89840 0.47569
			CHANNELS 3 Zrotation Yrotation Xrotation
			JOINT RightKnee
			{
				OFFSET -2.69849 -7.41406 0.00000
				CHANNELS 3 Zrotation Yrotation Xrotation
				JOINT RightAnkle
				{
					OFFSET -2.69369 -7.40087 0.00000
					CHANNELS 3 Zrotation Yrotation Xrotation
					JOINT RightToe
					{
						OFFSET -0.28932 -0.79491 2.04975
						CHANNELS 3 Zrotation Yrotation Xrotation
						End Site
						{
							OFFSET 0.00009 0.00010 1.09536
						}
					}
				}
			}
		}
	}
	JOINT lowerback
	{
		OFFSET 0 0 0
		CHANNELS 3 Zrotation Yrotation Xrotation
		JOINT Chest
		{
			OFFSET 0.01912 1.94784 -0.02419
			CHANNELS 3 Zrotation Yrotation Xrotation
			JOINT Chest2
			{
				OFFSET 0.07565 1.94258 0.01909
				CHANNELS 3 Zrotation Yrotation Xrotation
				JOINT lowerneck
				{
					OFFSET 0 0 0
					CHANNELS 3 Zrotation Yrotation Xrotation
					JOINT Neck
					{
						OFFSET -0.07010 1.86195 0.18976
						CHANNELS 3 Zrotation Yrotation Xrotation
						JOINT Head
						{
							OFFSET 0.02284 1.86595 -0.31497
							CHANNELS 3 Zrotation Yrotation Xrotation
							End Site
							{
								OFFSET 0.01200 1.90122 -0.12838
							}
						}
					}
				}
				JOINT LeftCollar
				{
					OFFSET 0 0 0
					CHANNELS 3 Zrotation Yrotation Xrotation
					JOINT LeftShoulder
					{
						OFFSET 3.39189 0.96331 -0.10437
CHANNELS 3 Zrotation Xrotation Yrotation
						JOINT LeftElbow
						{
OFFSET 0 -5.148450 0.000000
CHANNELS 3 Zrotation Xrotation Yrotation
							JOINT LeftWrist
							{
OFFSET 0 -3.436740 -0.000000
CHANNELS 3 Zrotation Xrotation Yrotation
								JOINT lhand
								{
									OFFSET 0 0 0
CHANNELS 3 Zrotation Xrotation Yrotation
									JOINT LFingers
									{
OFFSET 0 -0.588710 0.000000
CHANNELS 3 Zrotation Xrotation Yrotation
										End Site
										{
OFFSET 0 -0.474630 0.000000
										}
									}
								}
								JOINT LThumb
								{
OFFSET 0 0.000000 0.000000
CHANNELS 3 Zrotation Xrotation Yrotation
									End Site
									{
OFFSET 0 -0.481880 0.481880
									}
								}
							}
						}
					}
				}
				JOINT RightCollar
				{
					OFFSET 0 0 0
					CHANNELS 3 Zrotation Yrotation Xrotation
					JOINT RightShoulder
					{
						OFFSET -3.34934 1.18831 -0.19928
CHANNELS 3 Zrotation Xrotation Yrotation
						JOINT RightElbow
						{
OFFSET 0 -5.421850 0.000000
CHANNELS 3 Zrotation Xrotation Yrotation
							JOINT RightWrist
							{
OFFSET 0 -3.513170 -0.000000
CHANNELS 3 Zrotation Xrotation Yrotation
								JOINT rhand
								{
									OFFSET 0 0 0
CHANNELS 3 Zrotation Xrotation Yrotation
									JOINT RFingers
									{
OFFSET 0 -0.663190 0.000000
CHANNELS 3 Zrotation Xrotation Yrotation
										End Site
										{
OFFSET 0 -0.534680 0.000000
										}
									}
								}
								JOINT RThumb
								{
OFFSET 0 0.000000 0.000000
CHANNELS 3 Zrotation Xrotation Yrotation
									End Site
									{
OFFSET 0 -0.542840 0.542840
									}
								}
							}
						}
					}
				}
			}
		}
	}
}
MOTION
Frames: 9
Frame Time: 0.008333333333333333
-12.733100 17.615400 -13.097300 -1.351500 35.078200 7.520300 0.000000 0.000000 0.000000 -15.845300 -12.333700 -35.570300 9.286500 16.988600 57.075700 0.527200 -4.284400 -12.926100 0.117400 -2.209000 -6.083500 0.000000 0.000000 0.000000 27.387700 10.099200 -14.845300 -3.747600 -11.816700 35.086700 -2.596400 -4.545500 -32.305400 -0.070700 -1.715100 4.719000 -1.226800 1.175400 0.812900 2.583700 1.559500 1.258200 3.337400 0.762700 0.729500 -3.848100 -2.138900 -14.811800 -1.313000 -1.390600 27.211900 -0.001800 -1.107300 11.317700 0.000000 -0.000000 0.000000 -2.254300 4.141500 -11.837900 19.699900 -30.279100 5.379200 16.968700 3.009400 -25.236100 0.000000 0.000000 0.000000 -7.125000 0.000000 0.000000 -13.681200 55.687000 3.637000 0.000000 -0.000000 0.000000 -1.630100 -3.600900 21.814400 -14.903300 -24.011200 -3.186500 -26.749400 -3.995900 -9.599700 0.000000 0.000000 0.000000 7.125000 0.000000 -0.000000 0.158700 19.254900 0.097500
-12.484178 17.639494 -12.698422 -0.768619 35.927422 8.471508 0.000000 0.000000 0.000000 -15.638450 -13.520261 -39.462443 6.528174 14.920022 47.063991 0.650221 -1.618508 -14.765461 0.106884 -2.108024 -5.804202 0.000000 0.000000 0.000000 27.347859 9.405175 -12.873596 -3.354253 -11.247535 33.119315 -2.660051 -5.468345 -33.102620 -0.109576 -2.132916 5.873116 -1.433700 1.695792 1.017335 1.953685 2.251842 1.298606 2.794624 1.109506 0.626999 -4.336720 -2.181502 -14.814174 -1.167428 -1.374797 26.414991 0.140973 -1.121962 11.024522 0.000000 0.000000 0.000000 -1.978765 5.899110 -9.935907 18.852969 -29.235565 4.958812 17.500611 3.853572 -25.562532 0.000000 0.000000 0.000000 -7.125000 0.000000 0.000000 -13.300782 56.117288 3.672991 0.000000 0.000000 0.000000 -1.051583 -6.157007 25.213665 -16.656853 -26.402895 -3.933672 -26.927397 -6.191933 -9.727908 0.000000 0.000000 0.000000 7.125000 0.000000 0.000000 0.039925 19.095761 0.024747
-12.105945 17.611506 -12.147884 -1.222139 36.240087 8.632795 0.000000 0.000000 0.000000 -14.515081 -14.326730 -38.736636 2.533426 9.893151 28.636031 0.473139 -1.422789 -12.578471 0.320086 -3.635327 -10.053003 0.000000 0.000000 0.000000 28.115820 7.994873 -9.643608 -2.791516 -10.349455 30.116156 -2.796183 -5.060104 -33.671349 -0.005578 -0.478587 1.315026 -1.691893 2.360413 0.689764 2.117402 3.137787 1.810140 3.129286 1.536883 1.260938 -4.559790 -2.266296 -15.054240 -1.706114 -1.293839 25.539580 -0.001931 -1.161920 10.746414 0.000000 0.000000 0.000000 -2.695744 6.693134 -6.235122 16.937384 -26.775041 4.059178 16.412935 5.511659 -24.561247 0.000000 0.000000 0.000000 -7.125000 0.000000 0.000000 -13.909304 54.911688 3.435196 0.000000 0.000000 0.000000 -1.700339 -8.927903 28.698105 -19.491021 -30.023944 -5.274455 -27.303078 -9.617579 -10.443515 0.000000 0.000000 0.000000 7.125000 0.000000 0.000000 -0.179067 18.261171 -0.114021
-11.571235 17.539869 -11.444739 -2.506314 36.235070 8.194896 0.000000 0.000000 0.000000 -12.615962 -15.012090 -35.677692 0.520708 4.621126 12.831513 0.242553 1.567564 -10.014862 0.672877 -5.244007 -14.606190 0.000000 0.000000 0.000000 29.305172 5.562764 -5.415844 -2.145131 -9.161857 26.303143 -2.942415 -3.528813 -33.808371 -0.000806 0.161876 -0.444796 -1.228249 2.799339 0.766144 2.264167 3.720940 1.976329 3.020922 1.831609 1.369676 -4.378014 -2.000168 -14.889789 -1.837576 -0.966334 24.812398 -0.028611 -0.999897 10.438535 0.000000 0.000000 0.000000 -3.231681 8.025252 -2.772058 15.225087 -24.458348 3.318795 17.290404 7.182590 -24.745737 0.000000 0.000000 0.000000 -7.125000 0.000000 0.000000 -13.107178 55.266804 3.343697 0.000000 0.000000 0.000000 -1.610893 -11.506176 29.556155 -20.940132 -31.758427 -6.018410 -27.970398 -11.172296 -10.535934 0.000000 0.000000 0.000000 7.125000 0.000000 0.000000 -0.641888 18.088187 -0.410990
-10.854209 17.459434 -10.646492 -3.261815 35.903003 7.928401 0.000000 0.000000 0.000000 -12.114939 -15.223015 -34.854656 0.484274 4.460279 12.375699 0.103174 2.731675 -7.711622 0.543199 -4.721462 -13.115858 0.000000 0.000000 0.000000 29.432705 2.842688 -1.643155 -1.918117 -8.693416 24.840889 -2.780831 -2.265709 -32.406837 -0.036524 1.231861 -3.387133 -0.494634 3.219506 1.714235 2.072728 4.284962 2.066175 2.358625 2.127922 0.964679 -4.781138 -1.975726 -15.489204 -1.593891 -0.856338 24.759002 0.135346 -0.961922 10.539365 0.000000 0.000000 0.000000 -3.573951 8.646715 0.201884 13.948136 -22.660422 2.808168 15.533689 7.778287 -26.248242 0.000000 0.000000 0.000000 -7.125000 0.000000 0.000000 -15.696812 56.387015 4.460230 0.000000 0.000000 0.000000 -1.225362 -12.918763 28.946411 -21.281279 -32.155184 -6.199002 -26.986172 -10.467715 -9.463808 0.000000 0.000000 0.000000 7.125000 0.000000 0.000000 -0.017788 19.384267 -0.011009
-9.894977 17.593818 -9.654748 -1.348309 35.253516 9.343189 0.000000 0.000000 0.000000 -15.018482 -16.230568 -33.117563 0.947363 6.198422 17.361328 0.020008 -1.006289 -2.511193 0.050737 -1.453136 -3.996529 0.000000 0.000000 0.000000 26.433928 1.474039 1.193827 -2.229669 -9.328470 26.828682 -1.857166 -1.601253 -26.377140 -0.667869 5.222312 -14.544718 -1.978444 3.590088 1.939616 1.213886 4.762304 1.968578 2.275540 2.356243 0.670875 -4.761137 -1.996489 -15.896168 -1.489670 -0.888858 24.909070 0.160510 -0.967040 10.673769 0.000000 0.000000 0.000000 -3.841538 8.177932 3.606484 12.439108 -20.459818 2.253424 16.310990 10.449053 -25.552777 0.000000 0.000000 0.000000 -7.125000 0.000000 0.000000 -14.519614 55.866347 3.930244 0.000000 0.000000 0.000000 -0.552284 -12.101078 27.382168 -19.929660 -30.557033 -5.495709 -27.213690 -9.772635 -9.947603 0.000000 0.000000 0.000000 7.125000 0.000000 0.000000 -0.149054 18.823406 -0.093008
-8.780839 17.800853 -8.511774 -0.739417 34.482338 10.489611 0.000000 0.000000 0.000000 -17.425035 -14.856538 -30.819572 1.366543 7.398587 20.901815 -0.000088 -3.184638 -2.227260 0.000659 -0.155184 -0.426379 0.000000 0.000000 0.000000 23.358603 2.213720 -4.675158 -5.224974 -13.631564 41.783566 -0.209122 0.086390 -8.585988 -0.204282 2.896946 -7.993057 -2.968269 3.972806 0.077273 0.977689 5.310424 1.490028 2.689835 2.617565 1.124977 -4.922793 -2.022883 -15.946637 -1.323659 -0.873489 25.906107 0.246051 -0.965385 11.057752 0.000000 0.000000 0.000000 -3.877122 7.337647 2.723486 11.820526 -19.534906 2.041877 15.812668 10.849420 -25.808475 0.000000 0.000000 0.000000 -7.125000 0.000000 0.000000 -15.166955 56.015861 4.166655 0.000000 0.000000 0.000000 -0.943261 -9.284780 25.910791 -17.708303 -27.781897 -4.412469 -27.544467 -9.467969 -10.139881 0.000000 0.000000 0.000000 7.125000 0.000000 0.000000 -0.370076 18.575848 -0.232864
-7.715534 17.907876 -7.442643 0.346414 35.884805 9.756812 0.000000 0.000000 0.000000 -21.067753 -13.617431 -25.328914 1.738194 8.298043 23.623059 0.128744 -4.850609 -6.755665 0.086607 1.898577 5.225508 0.000000 0.000000 0.000000 19.554278 4.781753 -17.241810 -11.903186 -18.348262 65.680376 -0.186519 -7.196874 8.575193 -0.540610 -4.710356 13.084347 -3.402630 2.901457 0.558800 0.930443 3.864077 1.128444 2.845717 1.906133 0.556647 -4.231746 -1.355140 -15.515129 -1.542271 -0.032359 26.958784 0.169341 -0.551764 11.349245 0.000000 0.000000 0.000000 -2.848554 6.356794 -1.853387 12.236644 -20.158628 2.183142 14.455857 9.957304 -24.928140 0.000000 0.000000 0.000000 -7.125000 0.000000 0.000000 -16.071276 54.892261 3.980551 0.000000 0.000000 0.000000 -0.801971 -6.705331 24.015046 -16.705676 -26.468074 -3.955228 -27.314779 -6.726944 -10.633571 0.000000 0.000000 0.000000 7.125000 0.000000 0.000000 -0.174328 18.047915 -0.111736
-6.736622 17.884525 -6.384832 0.295422 38.382758 8.506316 0.000000 0.000000 0.000000 -22.999773 -12.958325 -20.067875 2.171111 9.213385 26.465387 0.544371 -5.813579 -13.166037 0.003909 0.402051 1.104746 0.000000 0.000000 0.000000 17.873352 6.237977 -30.253280 -15.596880 -19.528663 77.028316 0.308655 -10.146669 -6.469209 -0.266388 -3.320214 9.171547 -3.086806 1.630215 0.153477 1.579243 2.177731 0.974550 3.360352 1.062297 0.737441 -3.977156 -0.830149 -14.532546 -1.988101 0.819213 28.393054 0.084397 -0.201110 11.697180 0.000000 0.000000 0.000000 -1.338190 3.283240 -9.455738 13.589608 -22.144900 2.671525 16.998801 7.872811 -25.498647 0.000000 0.000000 0.000000 -7.125000 0.000000 0.000000 -13.785218 55.952004 3.754858 0.000000 0.000000 0.000000 -1.388585 -4.301405 22.359597 -16.648000 -26.391341 -3.929589 -28.324088 -7.694647 -10.984327 0.000000 0.000000 0.000000 7.125000 0.000000 0.000000 -0.855646 17.546056 -0.558083
